<svg xmlns="http://www.w3.org/2000/svg" width="1600" height="600" viewBox="0 0 1600 600">
  <defs>
    <linearGradient id="g" x1="0" y1="0" x2="1" y2="1">
      <stop offset="0" stop-color="#2f5bff"/>
      <stop offset="0.5" stop-color="#8b5cf6"/>
      <stop offset="1" stop-color="#22c55e"/>
    </linearGradient>
    <radialGradient id="r" cx="35%" cy="40%" r="75%">
      <stop offset="0" stop-color="rgba(255,255,255,0.20)"/>
      <stop offset="1" stop-color="rgba(0,0,0,0)"/>
    </radialGradient>
    <filter id="blur" x="-20%" y="-20%" width="140%" height="140%">
      <feGaussianBlur stdDeviation="35"/>
    </filter>
  </defs>
  <rect width="1600" height="600" fill="#070a14"/>
  <rect width="1600" height="600" fill="url(#g)" opacity="0.35"/>
  <g filter="url(#blur)" opacity="0.75">
    <circle cx="480" cy="260" r="220" fill="#60a5fa" opacity="0.35"/>
    <circle cx="980" cy="310" r="260" fill="#a78bfa" opacity="0.32"/>
    <circle cx="1240" cy="220" r="210" fill="#34d399" opacity="0.28"/>
  </g>
  <rect width="1600" height="600" fill="url(#r)"/>
  <g opacity="0.9">
    <!-- stars -->
    <circle cx="1441" cy="317" r="1.6" fill="rgba(255,255,255,0.45)"/><circle cx="1070" cy="313" r="0.8" fill="rgba(255,255,255,0.45)"/><circle cx="182" cy="300" r="0.8" fill="rgba(255,255,255,0.45)"/><circle cx="1052" cy="242" r="1" fill="rgba(255,255,255,0.35)"/><circle cx="1289" cy="251" r="1.6" fill="rgba(255,255,255,0.25)"/><circle cx="404" cy="328" r="0.8" fill="rgba(255,255,255,0.45)"/><circle cx="1404" cy="487" r="1.2" fill="rgba(255,255,255,0.25)"/><circle cx="217" cy="71" r="1.6" fill="rgba(255,255,255,0.6)"/><circle cx="990" cy="68" r="1.2" fill="rgba(255,255,255,0.35)"/><circle cx="920" cy="325" r="1.6" fill="rgba(255,255,255,0.6)"/><circle cx="1577" cy="380" r="1.6" fill="rgba(255,255,255,0.45)"/><circle cx="1267" cy="52" r="0.8" fill="rgba(255,255,255,0.6)"/><circle cx="179" cy="285" r="1" fill="rgba(255,255,255,0.25)"/><circle cx="1141" cy="132" r="0.8" fill="rgba(255,255,255,0.6)"/><circle cx="1400" cy="35" r="1.2" fill="rgba(255,255,255,0.25)"/><circle cx="1537" cy="348" r="1.6" fill="rgba(255,255,255,0.25)"/><circle cx="296" cy="403" r="0.8" fill="rgba(255,255,255,0.25)"/><circle cx="65" cy="294" r="1" fill="rgba(255,255,255,0.25)"/><circle cx="1433" cy="72" r="1.2" fill="rgba(255,255,255,0.35)"/><circle cx="1089" cy="416" r="1" fill="rgba(255,255,255,0.35)"/><circle cx="355" cy="396" r="1.6" fill="rgba(255,255,255,0.45)"/><circle cx="742" cy="126" r="1" fill="rgba(255,255,255,0.6)"/><circle cx="1130" cy="119" r="0.8" fill="rgba(255,255,255,0.45)"/><circle cx="1516" cy="395" r="1.6" fill="rgba(255,255,255,0.35)"/><circle cx="378" cy="295" r="1.6" fill="rgba(255,255,255,0.6)"/><circle cx="1466" cy="206" r="1" fill="rgba(255,255,255,0.35)"/><circle cx="1005" cy="109" r="1.2" fill="rgba(255,255,255,0.35)"/><circle cx="56" cy="261" r="1.6" fill="rgba(255,255,255,0.35)"/><circle cx="1260" cy="328" r="1.2" fill="rgba(255,255,255,0.35)"/><circle cx="1493" cy="349" r="1" fill="rgba(255,255,255,0.6)"/><circle cx="115" cy="0" r="1" fill="rgba(255,255,255,0.45)"/><circle cx="21" cy="260" r="0.8" fill="rgba(255,255,255,0.25)"/><circle cx="669" cy="233" r="1.2" fill="rgba(255,255,255,0.45)"/><circle cx="749" cy="308" r="1.2" fill="rgba(255,255,255,0.45)"/><circle cx="807" cy="387" r="1.2" fill="rgba(255,255,255,0.25)"/><circle cx="465" cy="12" r="1.6" fill="rgba(255,255,255,0.35)"/><circle cx="1319" cy="53" r="1" fill="rgba(255,255,255,0.35)"/><circle cx="628" cy="259" r="1.2" fill="rgba(255,255,255,0.6)"/><circle cx="894" cy="314" r="1" fill="rgba(255,255,255,0.35)"/><circle cx="1104" cy="344" r="0.8" fill="rgba(255,255,255,0.45)"/><circle cx="353" cy="327" r="1" fill="rgba(255,255,255,0.25)"/><circle cx="1121" cy="466" r="1.2" fill="rgba(255,255,255,0.6)"/><circle cx="945" cy="219" r="1.2" fill="rgba(255,255,255,0.45)"/><circle cx="510" cy="65" r="0.8" fill="rgba(255,255,255,0.25)"/><circle cx="669" cy="26" r="0.8" fill="rgba(255,255,255,0.35)"/><circle cx="757" cy="72" r="0.8" fill="rgba(255,255,255,0.6)"/><circle cx="1517" cy="53" r="1" fill="rgba(255,255,255,0.6)"/><circle cx="1310" cy="411" r="1.2" fill="rgba(255,255,255,0.6)"/><circle cx="774" cy="317" r="1.6" fill="rgba(255,255,255,0.45)"/><circle cx="706" cy="319" r="1.2" fill="rgba(255,255,255,0.25)"/><circle cx="1228" cy="530" r="0.8" fill="rgba(255,255,255,0.6)"/><circle cx="913" cy="426" r="0.8" fill="rgba(255,255,255,0.35)"/><circle cx="425" cy="213" r="1.2" fill="rgba(255,255,255,0.45)"/><circle cx="1349" cy="127" r="0.8" fill="rgba(255,255,255,0.6)"/><circle cx="1210" cy="582" r="1.6" fill="rgba(255,255,255,0.25)"/><circle cx="1469" cy="134" r="1.6" fill="rgba(255,255,255,0.25)"/><circle cx="376" cy="536" r="1.2" fill="rgba(255,255,255,0.45)"/><circle cx="207" cy="227" r="0.8" fill="rgba(255,255,255,0.35)"/><circle cx="751" cy="443" r="1" fill="rgba(255,255,255,0.6)"/><circle cx="1304" cy="78" r="1.6" fill="rgba(255,255,255,0.35)"/><circle cx="670" cy="309" r="1.2" fill="rgba(255,255,255,0.35)"/><circle cx="1006" cy="559" r="0.8" fill="rgba(255,255,255,0.35)"/><circle cx="1238" cy="387" r="1" fill="rgba(255,255,255,0.35)"/><circle cx="35" cy="564" r="0.8" fill="rgba(255,255,255,0.45)"/><circle cx="109" cy="56" r="1" fill="rgba(255,255,255,0.25)"/><circle cx="1028" cy="220" r="1.6" fill="rgba(255,255,255,0.35)"/><circle cx="1146" cy="218" r="1" fill="rgba(255,255,255,0.35)"/><circle cx="1292" cy="448" r="0.8" fill="rgba(255,255,255,0.6)"/><circle cx="279" cy="265" r="1.2" fill="rgba(255,255,255,0.35)"/><circle cx="860" cy="221" r="1.6" fill="rgba(255,255,255,0.25)"/><circle cx="189" cy="5" r="1.2" fill="rgba(255,255,255,0.35)"/><circle cx="1532" cy="242" r="1.2" fill="rgba(255,255,255,0.35)"/><circle cx="1058" cy="179" r="1" fill="rgba(255,255,255,0.35)"/><circle cx="413" cy="599" r="0.8" fill="rgba(255,255,255,0.6)"/><circle cx="1458" cy="221" r="1.2" fill="rgba(255,255,255,0.6)"/><circle cx="1046" cy="53" r="1.6" fill="rgba(255,255,255,0.25)"/><circle cx="906" cy="88" r="0.8" fill="rgba(255,255,255,0.6)"/><circle cx="291" cy="327" r="1.6" fill="rgba(255,255,255,0.35)"/><circle cx="1308" cy="221" r="1.2" fill="rgba(255,255,255,0.6)"/><circle cx="1569" cy="251" r="1" fill="rgba(255,255,255,0.35)"/><circle cx="330" cy="419" r="1.2" fill="rgba(255,255,255,0.6)"/><circle cx="620" cy="317" r="1" fill="rgba(255,255,255,0.35)"/><circle cx="912" cy="87" r="1" fill="rgba(255,255,255,0.35)"/><circle cx="1207" cy="323" r="0.8" fill="rgba(255,255,255,0.45)"/><circle cx="376" cy="427" r="1.6" fill="rgba(255,255,255,0.6)"/><circle cx="1574" cy="497" r="1.6" fill="rgba(255,255,255,0.45)"/><circle cx="965" cy="530" r="1" fill="rgba(255,255,255,0.6)"/><circle cx="1212" cy="521" r="1" fill="rgba(255,255,255,0.35)"/><circle cx="477" cy="75" r="1.2" fill="rgba(255,255,255,0.6)"/><circle cx="142" cy="413" r="0.8" fill="rgba(255,255,255,0.45)"/><circle cx="1503" cy="435" r="1.2" fill="rgba(255,255,255,0.45)"/><circle cx="1443" cy="401" r="1" fill="rgba(255,255,255,0.6)"/><circle cx="1172" cy="561" r="0.8" fill="rgba(255,255,255,0.25)"/><circle cx="1491" cy="488" r="1.2" fill="rgba(255,255,255,0.6)"/><circle cx="885" cy="305" r="1" fill="rgba(255,255,255,0.25)"/><circle cx="1405" cy="148" r="1.2" fill="rgba(255,255,255,0.6)"/><circle cx="668" cy="585" r="1" fill="rgba(255,255,255,0.45)"/><circle cx="320" cy="562" r="1.6" fill="rgba(255,255,255,0.35)"/><circle cx="585" cy="118" r="1" fill="rgba(255,255,255,0.25)"/><circle cx="1262" cy="330" r="1.6" fill="rgba(255,255,255,0.6)"/><circle cx="1015" cy="281" r="1.2" fill="rgba(255,255,255,0.25)"/><circle cx="716" cy="562" r="1.2" fill="rgba(255,255,255,0.6)"/><circle cx="238" cy="340" r="1.2" fill="rgba(255,255,255,0.6)"/><circle cx="1248" cy="578" r="1.2" fill="rgba(255,255,255,0.25)"/><circle cx="758" cy="397" r="0.8" fill="rgba(255,255,255,0.45)"/><circle cx="1286" cy="551" r="0.8" fill="rgba(255,255,255,0.45)"/><circle cx="680" cy="294" r="1.6" fill="rgba(255,255,255,0.35)"/><circle cx="1413" cy="386" r="0.8" fill="rgba(255,255,255,0.25)"/><circle cx="395" cy="214" r="0.8" fill="rgba(255,255,255,0.35)"/><circle cx="300" cy="318" r="1" fill="rgba(255,255,255,0.35)"/><circle cx="117" cy="447" r="1.2" fill="rgba(255,255,255,0.25)"/><circle cx="1502" cy="109" r="1" fill="rgba(255,255,255,0.25)"/><circle cx="1582" cy="152" r="1.6" fill="rgba(255,255,255,0.35)"/><circle cx="81" cy="508" r="1.6" fill="rgba(255,255,255,0.6)"/><circle cx="190" cy="183" r="1" fill="rgba(255,255,255,0.45)"/><circle cx="78" cy="86" r="0.8" fill="rgba(255,255,255,0.35)"/><circle cx="254" cy="39" r="0.8" fill="rgba(255,255,255,0.45)"/><circle cx="1450" cy="172" r="0.8" fill="rgba(255,255,255,0.6)"/><circle cx="331" cy="109" r="1" fill="rgba(255,255,255,0.35)"/><circle cx="1247" cy="366" r="1" fill="rgba(255,255,255,0.45)"/><circle cx="247" cy="444" r="1.2" fill="rgba(255,255,255,0.6)"/><circle cx="837" cy="259" r="1.6" fill="rgba(255,255,255,0.35)"/><circle cx="989" cy="25" r="1" fill="rgba(255,255,255,0.35)"/><circle cx="368" cy="155" r="1.2" fill="rgba(255,255,255,0.25)"/><circle cx="912" cy="542" r="0.8" fill="rgba(255,255,255,0.6)"/><circle cx="1120" cy="589" r="0.8" fill="rgba(255,255,255,0.6)"/><circle cx="899" cy="23" r="1.2" fill="rgba(255,255,255,0.6)"/><circle cx="1047" cy="151" r="0.8" fill="rgba(255,255,255,0.35)"/><circle cx="1017" cy="179" r="1.6" fill="rgba(255,255,255,0.35)"/><circle cx="1414" cy="4" r="0.8" fill="rgba(255,255,255,0.45)"/><circle cx="848" cy="193" r="1.6" fill="rgba(255,255,255,0.6)"/><circle cx="683" cy="491" r="1" fill="rgba(255,255,255,0.45)"/><circle cx="771" cy="195" r="1.2" fill="rgba(255,255,255,0.35)"/><circle cx="1360" cy="4" r="1.2" fill="rgba(255,255,255,0.45)"/><circle cx="1315" cy="573" r="1.2" fill="rgba(255,255,255,0.45)"/><circle cx="324" cy="587" r="1.6" fill="rgba(255,255,255,0.45)"/><circle cx="169" cy="503" r="0.8" fill="rgba(255,255,255,0.35)"/><circle cx="876" cy="84" r="1.6" fill="rgba(255,255,255,0.45)"/><circle cx="1201" cy="519" r="1.6" fill="rgba(255,255,255,0.25)"/><circle cx="178" cy="136" r="0.8" fill="rgba(255,255,255,0.6)"/><circle cx="566" cy="116" r="1.6" fill="rgba(255,255,255,0.6)"/><circle cx="1487" cy="262" r="0.8" fill="rgba(255,255,255,0.6)"/><circle cx="1328" cy="377" r="0.8" fill="rgba(255,255,255,0.25)"/><circle cx="1011" cy="306" r="1" fill="rgba(255,255,255,0.25)"/><circle cx="1340" cy="264" r="1.2" fill="rgba(255,255,255,0.45)"/><circle cx="421" cy="520" r="1.6" fill="rgba(255,255,255,0.45)"/><circle cx="934" cy="325" r="1.6" fill="rgba(255,255,255,0.6)"/><circle cx="242" cy="47" r="1" fill="rgba(255,255,255,0.45)"/><circle cx="109" cy="553" r="1" fill="rgba(255,255,255,0.45)"/><circle cx="1304" cy="385" r="1" fill="rgba(255,255,255,0.45)"/><circle cx="1037" cy="34" r="1.6" fill="rgba(255,255,255,0.6)"/><circle cx="52" cy="88" r="0.8" fill="rgba(255,255,255,0.25)"/><circle cx="441" cy="475" r="1.6" fill="rgba(255,255,255,0.25)"/><circle cx="1493" cy="297" r="1.2" fill="rgba(255,255,255,0.35)"/><circle cx="279" cy="122" r="1" fill="rgba(255,255,255,0.45)"/><circle cx="688" cy="168" r="1" fill="rgba(255,255,255,0.35)"/><circle cx="970" cy="229" r="1.2" fill="rgba(255,255,255,0.45)"/><circle cx="124" cy="226" r="1" fill="rgba(255,255,255,0.45)"/><circle cx="1579" cy="64" r="1.6" fill="rgba(255,255,255,0.6)"/><circle cx="434" cy="100" r="1.6" fill="rgba(255,255,255,0.6)"/><circle cx="640" cy="61" r="1.6" fill="rgba(255,255,255,0.35)"/><circle cx="1336" cy="474" r="1.6" fill="rgba(255,255,255,0.35)"/><circle cx="530" cy="164" r="0.8" fill="rgba(255,255,255,0.45)"/><circle cx="829" cy="171" r="1" fill="rgba(255,255,255,0.6)"/><circle cx="961" cy="504" r="1.2" fill="rgba(255,255,255,0.45)"/><circle cx="202" cy="567" r="1.6" fill="rgba(255,255,255,0.45)"/><circle cx="332" cy="351" r="0.8" fill="rgba(255,255,255,0.45)"/><circle cx="777" cy="114" r="1" fill="rgba(255,255,255,0.6)"/><circle cx="1192" cy="289" r="1.2" fill="rgba(255,255,255,0.6)"/><circle cx="1183" cy="560" r="1" fill="rgba(255,255,255,0.45)"/><circle cx="1577" cy="29" r="1.2" fill="rgba(255,255,255,0.35)"/><circle cx="938" cy="126" r="1.2" fill="rgba(255,255,255,0.6)"/><circle cx="1289" cy="378" r="1.2" fill="rgba(255,255,255,0.6)"/><circle cx="1298" cy="202" r="1" fill="rgba(255,255,255,0.45)"/><circle cx="385" cy="194" r="1.2" fill="rgba(255,255,255,0.45)"/><circle cx="1453" cy="250" r="0.8" fill="rgba(255,255,255,0.6)"/><circle cx="20" cy="214" r="0.8" fill="rgba(255,255,255,0.35)"/><circle cx="1054" cy="519" r="0.8" fill="rgba(255,255,255,0.35)"/><circle cx="1370" cy="113" r="1.2" fill="rgba(255,255,255,0.25)"/><circle cx="395" cy="594" r="0.8" fill="rgba(255,255,255,0.45)"/><circle cx="100" cy="436" r="0.8" fill="rgba(255,255,255,0.45)"/><circle cx="641" cy="582" r="0.8" fill="rgba(255,255,255,0.6)"/><circle cx="716" cy="545" r="1" fill="rgba(255,255,255,0.25)"/><circle cx="1173" cy="207" r="1" fill="rgba(255,255,255,0.35)"/><circle cx="208" cy="215" r="0.8" fill="rgba(255,255,255,0.45)"/><circle cx="1199" cy="527" r="1.2" fill="rgba(255,255,255,0.6)"/><circle cx="829" cy="27" r="0.8" fill="rgba(255,255,255,0.6)"/><circle cx="226" cy="276" r="1" fill="rgba(255,255,255,0.6)"/><circle cx="745" cy="22" r="0.8" fill="rgba(255,255,255,0.25)"/><circle cx="875" cy="544" r="1.6" fill="rgba(255,255,255,0.35)"/><circle cx="761" cy="374" r="1" fill="rgba(255,255,255,0.45)"/><circle cx="757" cy="261" r="1" fill="rgba(255,255,255,0.35)"/><circle cx="323" cy="155" r="1" fill="rgba(255,255,255,0.25)"/><circle cx="1205" cy="127" r="1" fill="rgba(255,255,255,0.45)"/><circle cx="1029" cy="580" r="0.8" fill="rgba(255,255,255,0.6)"/><circle cx="845" cy="474" r="0.8" fill="rgba(255,255,255,0.25)"/><circle cx="483" cy="432" r="1" fill="rgba(255,255,255,0.35)"/><circle cx="1549" cy="5" r="1" fill="rgba(255,255,255,0.45)"/><circle cx="494" cy="94" r="1.6" fill="rgba(255,255,255,0.6)"/><circle cx="879" cy="343" r="1.6" fill="rgba(255,255,255,0.25)"/><circle cx="455" cy="50" r="1.6" fill="rgba(255,255,255,0.35)"/><circle cx="77" cy="185" r="1" fill="rgba(255,255,255,0.25)"/><circle cx="532" cy="84" r="1.2" fill="rgba(255,255,255,0.25)"/><circle cx="693" cy="80" r="1.6" fill="rgba(255,255,255,0.45)"/><circle cx="151" cy="524" r="1.6" fill="rgba(255,255,255,0.35)"/><circle cx="1405" cy="158" r="1" fill="rgba(255,255,255,0.45)"/><circle cx="884" cy="332" r="0.8" fill="rgba(255,255,255,0.6)"/><circle cx="339" cy="46" r="1.6" fill="rgba(255,255,255,0.25)"/><circle cx="1505" cy="160" r="0.8" fill="rgba(255,255,255,0.45)"/><circle cx="1038" cy="40" r="1.2" fill="rgba(255,255,255,0.25)"/><circle cx="209" cy="533" r="1" fill="rgba(255,255,255,0.6)"/><circle cx="344" cy="234" r="1" fill="rgba(255,255,255,0.6)"/><circle cx="530" cy="464" r="0.8" fill="rgba(255,255,255,0.35)"/><circle cx="956" cy="3" r="1" fill="rgba(255,255,255,0.6)"/><circle cx="206" cy="203" r="1.6" fill="rgba(255,255,255,0.25)"/><circle cx="1098" cy="294" r="1.2" fill="rgba(255,255,255,0.45)"/><circle cx="508" cy="272" r="1.2" fill="rgba(255,255,255,0.35)"/><circle cx="77" cy="410" r="1.6" fill="rgba(255,255,255,0.6)"/><circle cx="141" cy="159" r="0.8" fill="rgba(255,255,255,0.25)"/><circle cx="116" cy="556" r="1" fill="rgba(255,255,255,0.45)"/>
  </g>
</svg>